<svg width="362" height="408" viewBox="0 0 362 408" fill="none" xmlns="http://www.w3.org/2000/svg">
<g opacity="0.06">
<path d="M-1.6416 73.1211L67.301 129.529V131.618L-1.6416 188.025V73.1211Z" fill="#06C6D1"/>
<path d="M-1.6416 219.363L67.301 275.77V277.86L-1.6416 334.267V219.363Z" fill="#06C6D1"/>
<path d="M79.7969 0L10.8543 56.4076V58.4967L79.7969 114.904V0Z" fill="#9A69F9"/>
<path d="M79.7969 146.242L10.8543 202.649V204.738L79.7969 261.146V146.242Z" fill="#9A69F9"/>
<path d="M-5 361.095L63.9426 417.502V419.591L-5 475.999V361.095Z" fill="#06C6D1"/>
<path d="M76.4385 287.974L7.49588 344.381V346.47L76.4385 402.878V287.974Z" fill="#9A69F9"/>
<path d="M90.7114 152.041L159.654 208.449V210.538L90.7114 266.945V152.041Z" fill="#06C6D1"/>
<path d="M90.7114 298.283L159.654 354.69V356.779L90.7114 413.187V298.283Z" fill="#06C6D1"/>
<path d="M172.15 78.9199L103.207 135.327V137.417L172.15 193.824V78.9199Z" fill="#9A69F9"/>
<path d="M172.15 225.162L103.207 281.569V283.658L172.15 340.066V225.162Z" fill="#9A69F9"/>
<path d="M168.792 367.733L99.8489 424.14V426.23L168.792 482.637V367.733Z" fill="#9A69F9"/>
<path d="M186.422 235.998L255.365 292.406V294.495L186.422 350.902V235.998Z" fill="#06C6D1"/>
<path d="M186.422 382.24L255.365 438.648V440.737L186.422 497.145V382.24Z" fill="#06C6D1"/>
<path d="M267.861 162.877L198.919 219.285V221.374L267.861 277.781V162.877Z" fill="#9A69F9"/>
<path d="M267.861 309.119L198.919 365.527V367.616L267.861 424.023V309.119Z" fill="#9A69F9"/>
<path d="M279.615 424.023L348.558 367.616V365.527L279.615 309.119V424.023Z" fill="#06C6D1"/>
<path d="M279.615 277.781L348.558 221.374V219.285L279.615 162.877V277.781Z" fill="#06C6D1"/>
<path d="M361.054 497.145L292.111 440.737V438.648L361.054 382.24V497.145Z" fill="#9A69F9"/>
<path d="M361.054 350.902L292.111 294.495V292.406L361.054 235.998V350.902Z" fill="#9A69F9"/>
</g>
</svg>
